<svg width="124" height="18" viewBox="0 0 124 18" fill="none" xmlns="http://www.w3.org/2000/svg">
<path d="M0.315277 18V0.312H4.74186L9.33777 11.064L13.9337 0.312H18.3361V18H14.1272V8.28L10.4021 17.232H8.27345L4.52416 8.28V18H0.315277ZM23.9177 18L21.2327 15.336V2.976L23.9177 0.312H34.3673L37.0523 2.976V15.336L34.3673 18H23.9177ZM26.6268 14.592H31.7065L32.5531 13.752V4.56L31.6581 3.72H26.6268L25.756 4.56V13.752L26.6268 14.592ZM42.1541 18L39.4692 15.336V2.976L42.1541 0.312H51.3218L54.0309 2.976V6.552H49.6285V4.56L48.7577 3.72H44.8633L43.9925 4.56V13.752L44.8633 14.592H48.9029L49.7979 13.752V11.736H54.1761V15.336L51.4911 18H42.1541ZM56.1575 18V0.312H60.6809V7.344L66.196 0.312H71.2031L64.914 8.016L71.2031 18H66.3895L62.3741 11.16L60.6809 13.224V18H56.1575ZM72.9054 18V0.312H86.4512V3.96H77.4287V7.224H85.5562V10.608H77.4287V14.352H86.4512V18H72.9054ZM89.3468 18V0.312H94.2814L100.28 10.92V0.312H104.489V18H100.28L94.4265 7.632H93.5557V18H89.3468ZM107.867 18V0.312H119.501L123.202 3.984V14.328L119.501 18H107.867ZM112.39 14.592H117.542L118.824 13.32V4.992L117.542 3.72H112.39V14.592Z" fill="#0075FF"/>
</svg>
