<svg width="43" height="32" viewBox="0 0 43 32" fill="none" xmlns="http://www.w3.org/2000/svg">
<path d="M40.9291 16.8889C40.9291 21.2568 38.8781 24.3746 35.4484 26.4725C31.9426 28.6169 26.9619 29.7 21.2756 29.7C15.5893 29.7 10.6085 28.6169 7.10276 26.4725C3.67306 24.3746 1.62204 21.2568 1.62204 16.8889C1.62204 13.4943 1.88862 10.6241 2.86787 8.2999C3.81255 6.0578 5.4571 4.2383 8.45553 2.9908C10.7454 2.0381 12.7492 2.4617 14.794 3.2673C15.3106 3.4708 15.8178 3.6939 16.3369 3.9245C16.3845 3.9456 16.4321 3.9668 16.4801 3.9882C16.9454 4.1951 17.4264 4.409 17.8982 4.6002C18.9208 5.0147 20.0775 5.4 21.2756 5.4C22.4736 5.4 23.6304 5.0147 24.653 4.6002C25.1248 4.409 25.6057 4.1951 26.0709 3.9882C26.1189 3.9669 26.1667 3.9456 26.2143 3.9245C26.7333 3.6939 27.2406 3.4708 27.7571 3.2673C29.802 2.4617 31.8057 2.0381 34.0956 2.9908C37.0941 4.2383 38.7386 6.0578 39.6833 8.2999C40.6625 10.6241 40.9291 13.4943 40.9291 16.8889Z" fill="white" stroke="#0075FF" stroke-width="3" stroke-linejoin="round"/>
</svg>
