<svg width="131" height="34" viewBox="0 0 131 34" fill="none" xmlns="http://www.w3.org/2000/svg">
<path d="M0.794525 13V1.3636H2.91913V6.2898H8.35358V1.3636H10.4839V13H8.35358V8.0568H2.91913V13H0.794525ZM16.701 13.1705C15.842 13.1705 15.0976 12.983 14.4676 12.608C13.8377 12.233 13.349 11.7083 13.0016 11.0341C12.658 10.3598 12.4863 9.572 12.4863 8.6705C12.4863 7.7689 12.658 6.9792 13.0016 6.3011C13.349 5.6231 13.8377 5.0966 14.4676 4.7216C15.0976 4.3466 15.842 4.1591 16.701 4.1591C17.56 4.1591 18.3044 4.3466 18.9346 4.7216C19.5645 5.0966 20.0513 5.6231 20.395 6.3011C20.7417 6.9792 20.916 7.7689 20.916 8.6705C20.916 9.572 20.7417 10.3598 20.395 11.0341C20.0513 11.7083 19.5645 12.233 18.9346 12.608C18.3044 12.983 17.56 13.1705 16.701 13.1705ZM16.7124 11.5227C17.1782 11.5227 17.5676 11.3958 17.8806 11.142C18.1937 10.8845 18.4266 10.5398 18.5793 10.108C18.7358 9.6761 18.8136 9.1951 18.8136 8.6648C18.8136 8.1307 18.7358 7.6477 18.5793 7.2159C18.4266 6.7803 18.1937 6.4337 17.8806 6.1761C17.5676 5.9186 17.1782 5.7898 16.7124 5.7898C16.2353 5.7898 15.8382 5.9186 15.5213 6.1761C15.2082 6.4337 14.9735 6.7803 14.817 7.2159C14.6643 7.6477 14.5879 8.1307 14.5879 8.6648C14.5879 9.1951 14.6643 9.6761 14.817 10.108C14.9735 10.5398 15.2082 10.8845 15.5213 11.142C15.8382 11.3958 16.2353 11.5227 16.7124 11.5227ZM29.7883 6.5795L27.8986 6.7841C27.8452 6.5947 27.7514 6.4167 27.6184 6.25C27.4884 6.0833 27.313 5.9489 27.0913 5.8466C26.8695 5.7443 26.5984 5.6932 26.2779 5.6932C25.8465 5.6932 25.4837 5.786 25.1904 5.9716C24.9001 6.1572 24.757 6.3977 24.7611 6.6932C24.757 6.947 24.8508 7.1534 25.0413 7.3125C25.2358 7.4716 25.5563 7.6023 26.0028 7.7045L27.5035 8.0227C28.336 8.2008 28.9548 8.483 29.359 8.8693C29.7672 9.2557 29.9738 9.7614 29.9778 10.3864C29.9738 10.9356 29.8115 11.4205 29.491 11.8409C29.1735 12.2576 28.7331 12.5833 28.1677 12.8182C27.6033 13.053 26.9542 13.1705 26.2205 13.1705C25.1441 13.1705 24.2773 12.947 23.6212 12.5C22.964 12.0492 22.573 11.4223 22.447 10.6193L24.4688 10.4261C24.5605 10.8201 24.755 11.1174 25.0523 11.3182C25.3507 11.5189 25.7377 11.6193 26.2154 11.6193C26.7073 11.6193 27.1024 11.5189 27.4007 11.3182C27.702 11.1174 27.8532 10.8693 27.8532 10.5739C27.8532 10.3239 27.7555 10.1174 27.5609 9.9545C27.3705 9.7917 27.0721 9.6667 26.668 9.5795L25.1672 9.267C24.3237 9.0928 23.6998 8.7992 23.2946 8.3864C22.8894 7.9697 22.6899 7.4432 22.6929 6.8068C22.6899 6.2689 22.836 5.803 23.1344 5.4091C23.4357 5.0114 23.854 4.7045 24.3882 4.4886C24.9264 4.2689 25.5472 4.1591 26.2497 4.1591C27.2808 4.1591 28.0911 4.3769 28.6837 4.8125C29.2784 5.2481 29.6472 5.8371 29.7883 6.5795ZM36.2408 4.2727V5.8636H31.1843V4.2727H36.2408ZM32.432 2.1818H34.5052V10.375C34.5052 10.6515 34.5475 10.8636 34.6312 11.0114C34.7189 11.1553 34.8338 11.2538 34.9749 11.3068C35.116 11.3598 35.2722 11.3864 35.4445 11.3864C35.5745 11.3864 35.6925 11.3769 35.7993 11.358C35.9102 11.339 35.9938 11.322 36.0513 11.3068L36.401 12.9148C36.2901 12.9527 36.1319 12.9943 35.9253 13.0398C35.7227 13.0852 35.4748 13.1117 35.1815 13.1193C34.6614 13.1345 34.1938 13.0568 33.7775 12.8864C33.3623 12.7121 33.0317 12.4432 32.7878 12.0795C32.5469 11.7159 32.428 11.2614 32.432 10.7159V2.1818ZM41.9352 13.1705C41.0534 13.1705 40.2914 12.9886 39.6504 12.625C39.0124 12.2576 38.5216 11.7386 38.1779 11.0682C37.8352 10.3939 37.6629 9.6004 37.6629 8.6875C37.6629 7.7898 37.8352 7.0019 38.1779 6.3239C38.5256 5.642 39.0104 5.1117 39.6333 4.733C40.2551 4.3504 40.9858 4.1591 41.8264 4.1591C42.3686 4.1591 42.8796 4.2462 43.3604 4.4205C43.8462 4.5909 44.2735 4.8561 44.6434 5.2159C45.0173 5.5758 45.3116 6.0341 45.5253 6.5909C45.739 7.1439 45.8458 7.803 45.8458 8.5682V9.1989H38.6365V7.8125H43.8593C43.8552 7.4186 43.7696 7.0682 43.6013 6.7614C43.4329 6.4508 43.1981 6.2064 42.8967 6.0284C42.5994 5.8504 42.2517 5.7614 41.8546 5.7614C41.4313 5.7614 41.0584 5.8636 40.7379 6.0682C40.4174 6.2689 40.1674 6.5341 39.988 6.8636C39.8127 7.1894 39.723 7.5473 39.7189 7.9375V9.1477C39.7189 9.6553 39.8127 10.0909 39.9991 10.4545C40.1866 10.8144 40.4476 11.0909 40.7842 11.2841C41.1199 11.4735 41.5129 11.5682 41.9635 11.5682C42.2648 11.5682 42.5379 11.5265 42.7829 11.4432C43.0268 11.3561 43.2384 11.2292 43.4178 11.0625C43.5972 10.8958 43.7333 10.6894 43.825 10.4432L45.7601 10.6591C45.6382 11.1667 45.4053 11.6098 45.0617 11.9886C44.722 12.3636 44.2866 12.6553 43.7565 12.8636C43.2253 13.0682 42.6186 13.1705 41.9352 13.1705ZM51.0252 13.1534C50.3338 13.1534 49.716 12.9773 49.1698 12.625C48.6245 12.2727 48.1921 11.7614 47.8756 11.0909C47.5592 10.4205 47.3999 9.6061 47.3999 8.6477C47.3999 7.678 47.5612 6.8598 47.8817 6.1932C48.2062 5.5227 48.6426 5.017 49.1929 4.6761C49.7422 4.3314 50.355 4.1591 51.0313 4.1591C51.5463 4.1591 51.9706 4.2462 52.3022 4.4205C52.6348 4.5909 52.8979 4.7973 53.0924 5.0398C53.2869 5.2784 53.4381 5.5038 53.5449 5.7159H53.6306V1.3636H55.7099V13H53.6709V11.625H53.5449C53.4381 11.8371 53.2839 12.0625 53.0813 12.3011C52.8787 12.536 52.6116 12.7367 52.279 12.9034C51.9475 13.0701 51.5292 13.1534 51.0252 13.1534ZM51.6038 11.4659C52.0432 11.4659 52.4171 11.3485 52.7265 11.1136C53.035 10.875 53.2698 10.5436 53.43 10.1193C53.5913 9.6951 53.6709 9.2008 53.6709 8.6364C53.6709 8.072 53.5913 7.5814 53.43 7.1648C53.2738 6.7481 53.041 6.4242 52.7316 6.1932C52.4262 5.9621 52.0503 5.8466 51.6038 5.8466C51.1422 5.8466 50.7562 5.9659 50.4467 6.2045C50.1373 6.4432 49.9045 6.7727 49.7483 7.1932C49.5921 7.6136 49.5134 8.0947 49.5134 8.6364C49.5134 9.1818 49.5921 9.6686 49.7483 10.0966C49.9085 10.5208 50.1434 10.8561 50.4528 11.1023C50.7662 11.3447 51.1492 11.4659 51.6038 11.4659ZM66.6967 4.2727V5.8636H61.4971V4.2727H66.6967ZM62.7962 13V3.4489C62.7962 2.8617 62.9192 2.3731 63.1631 1.983C63.411 1.5928 63.7436 1.3011 64.1599 1.108C64.5761 0.914802 65.0377 0.818199 65.5457 0.818199C65.9045 0.818199 66.223 0.8466 66.5022 0.9034C66.7803 0.9602 66.987 1.0114 67.12 1.0568L66.7078 2.6477C66.6201 2.6212 66.5092 2.5947 66.3762 2.5682C66.2421 2.5379 66.093 2.5227 65.9287 2.5227C65.5437 2.5227 65.2705 2.6155 65.1103 2.8011C64.9541 2.983 64.8755 3.2443 64.8755 3.5852V13H62.7962ZM70.7131 13.1761C70.1557 13.1761 69.6538 13.0777 69.2073 12.8807C68.7638 12.6799 68.4131 12.3845 68.1531 11.9943C67.8971 11.6042 67.7701 11.1231 67.7701 10.5511C67.7701 10.0587 67.8618 9.6515 68.0442 9.3295C68.2276 9.0076 68.4776 8.75 68.7951 8.5568C69.1116 8.3636 69.4683 8.2178 69.8654 8.1193C70.2666 8.017 70.6808 7.9432 71.1082 7.8977C71.6232 7.8447 72.0414 7.7973 72.362 7.7557C72.6835 7.7102 72.9163 7.642 73.0614 7.5511C73.2096 7.4564 73.2842 7.3106 73.2842 7.1136V7.0795C73.2842 6.6515 73.1561 6.3201 72.9012 6.0852C72.6452 5.8504 72.2763 5.733 71.7955 5.733C71.2875 5.733 70.8854 5.8428 70.5871 6.0625C70.2928 6.2822 70.0942 6.5417 69.9914 6.8409L68.0563 6.5682C68.2085 6.0379 68.4605 5.5947 68.8122 5.2386C69.163 4.8788 69.5923 4.6098 70.1003 4.4318C70.6082 4.25 71.1696 4.1591 71.7844 4.1591C72.2077 4.1591 72.63 4.2083 73.0493 4.3068C73.4696 4.4053 73.8536 4.5682 74.2003 4.7955C74.548 5.0189 74.8262 5.3239 75.0368 5.7102C75.2505 6.0966 75.3574 6.5795 75.3574 7.1591V13H73.3648V11.8011H73.2962C73.1703 12.0436 72.9919 12.2708 72.7631 12.483C72.5383 12.6913 72.2531 12.8598 71.9104 12.9886C71.5698 13.1136 71.1717 13.1761 70.7131 13.1761ZM71.2513 11.6648C71.6675 11.6648 72.0283 11.5833 72.3337 11.4205C72.6391 11.2538 72.8739 11.0341 73.0382 10.7614C73.2065 10.4886 73.2902 10.1913 73.2902 9.8693V8.8409C73.2247 8.8939 73.1148 8.9432 72.9576 8.9886C72.8054 9.0341 72.6331 9.0739 72.4426 9.108C72.2521 9.142 72.0626 9.1723 71.8751 9.1989C71.6887 9.2254 71.5264 9.2481 71.3893 9.267C71.0799 9.3087 70.8028 9.3769 70.5589 9.4716C70.314 9.5663 70.1214 9.6989 69.9803 9.8693C69.8392 10.036 69.7687 10.2519 69.7687 10.517C69.7687 10.8958 69.9078 11.1818 70.1859 11.375C70.4651 11.5682 70.8199 11.6648 71.2513 11.6648ZM79.4927 10.2614L79.4876 7.7784H79.8192L82.9799 4.2727H85.4028L81.5145 8.5682H81.0851L79.4927 10.2614ZM77.6029 13V1.3636H79.6761V13H77.6029ZM83.123 13L80.2607 9.0284L81.6576 7.5795L85.6034 13H83.123ZM90.4775 13.1705C89.5956 13.1705 88.8336 12.9886 88.1926 12.625C87.5546 12.2576 87.0638 11.7386 86.7211 11.0682C86.3774 10.3939 86.2051 9.6004 86.2051 8.6875C86.2051 7.7898 86.3774 7.0019 86.7211 6.3239C87.0678 5.642 87.5526 5.1117 88.1755 4.733C88.7973 4.3504 89.5291 4.1591 90.3686 4.1591C90.9109 4.1591 91.4219 4.2462 91.9036 4.4205C92.3884 4.5909 92.8157 4.8561 93.1856 5.2159C93.5606 5.5758 93.8539 6.0341 94.0675 6.5909C94.2812 7.1439 94.389 7.803 94.389 8.5682V9.1989H87.1787V7.8125H92.4015C92.3975 7.4186 92.3118 7.0682 92.1435 6.7614C91.9762 6.4508 91.7413 6.2064 91.439 6.0284C91.1417 5.8504 90.794 5.7614 90.3968 5.7614C89.9735 5.7614 89.6016 5.8636 89.2801 6.0682C88.9596 6.2689 88.7097 6.5341 88.5303 6.8636C88.3549 7.1894 88.2652 7.5473 88.2612 7.9375V9.1477C88.2612 9.6553 88.3549 10.0909 88.5413 10.4545C88.7288 10.8144 88.9899 11.0909 89.3265 11.2841C89.6621 11.4735 90.0552 11.5682 90.5057 11.5682C90.8071 11.5682 91.0802 11.5265 91.3251 11.4432C91.569 11.3561 91.7807 11.2292 91.9601 11.0625C92.1395 10.8958 92.2755 10.6894 92.3672 10.4432L94.3024 10.6591C94.1804 11.1667 93.9476 11.6098 93.6039 11.9886C93.2642 12.3636 92.8288 12.6553 92.2987 12.8636C91.7676 13.0682 91.1608 13.1705 90.4775 13.1705ZM102.063 13H99.7953L103.924 1.3636H106.546L110.681 13H108.414L105.281 3.75H105.189L102.063 13ZM102.137 8.4375H108.322V10.1307H102.137V8.4375ZM112.387 13V1.3636H116.785C117.686 1.3636 118.442 1.5303 119.053 1.8636C119.668 2.197 120.131 2.6553 120.445 3.2386C120.761 3.8182 120.919 4.4773 120.919 5.2159C120.919 5.9621 120.761 6.625 120.445 7.2045C120.127 7.7841 119.659 8.2405 119.042 8.5739C118.423 8.9034 117.661 9.0682 116.757 9.0682H113.842V7.3352H116.47C116.997 7.3352 117.428 7.2443 117.765 7.0625C118.1 6.8807 118.348 6.6307 118.508 6.3125C118.673 5.9943 118.755 5.6288 118.755 5.2159C118.755 4.803 118.673 4.4394 118.508 4.125C118.348 3.8106 118.098 3.5663 117.759 3.392C117.423 3.214 116.99 3.125 116.458 3.125H114.511V13H112.387ZM125.051 1.3636V13H122.926V1.3636H125.051ZM0.794525 30V18.3636H5.19259C6.09352 18.3636 6.84943 18.5189 7.4603 18.8295C8.0749 19.1402 8.53873 19.5758 8.85177 20.1364C9.16865 20.6932 9.32709 21.3428 9.32709 22.0852C9.32709 22.8314 9.16673 23.4792 8.84613 24.0284C8.52925 24.5739 8.0616 24.9962 7.44307 25.2955C6.82464 25.5909 6.0649 25.7386 5.16397 25.7386H2.03149V23.9886H4.87763C5.40444 23.9886 5.83581 23.9167 6.17184 23.7727C6.50776 23.625 6.7559 23.411 6.91626 23.1307C7.08044 22.8466 7.16247 22.4981 7.16247 22.0852C7.16247 21.6723 7.08044 21.3201 6.91626 21.0284C6.75207 20.733 6.50202 20.5095 6.1661 20.358C5.83007 20.2027 5.39678 20.125 4.86614 20.125H2.91913V30H0.794525ZM6.85326 24.7273L9.75665 30H7.38582L4.53404 24.7273H6.85326ZM11.444 30V18.3636H19.0716V20.1307H13.5685V23.2898H18.6766V25.0568H13.5685V28.233H19.118V30H11.444ZM27.7746 21.5625C27.7212 21.0663 27.4954 20.6799 27.0983 20.4034C26.7053 20.1269 26.1933 19.9886 25.5633 19.9886C25.1209 19.9886 24.7409 20.0549 24.4244 20.1875C24.107 20.3201 23.8651 20.5 23.6968 20.7273C23.5284 20.9545 23.4428 21.214 23.4387 21.5057C23.4387 21.7481 23.4942 21.9583 23.605 22.1364C23.7199 22.3144 23.8741 22.4659 24.0687 22.5909C24.2642 22.7121 24.4799 22.8144 24.7157 22.8977C24.9526 22.9811 25.1914 23.0511 25.4323 23.108L26.5319 23.3807C26.9744 23.483 27.3997 23.6212 27.8089 23.7955C28.2211 23.9697 28.589 24.1894 28.9135 24.4545C29.2421 24.7197 29.5021 25.0398 29.6926 25.4148C29.8831 25.7898 29.9788 26.2292 29.9788 26.733C29.9788 27.4148 29.8035 28.0152 29.4517 28.5341C29.101 29.0492 28.593 29.4527 27.9288 29.7443C27.2687 30.0322 26.4684 30.1761 25.5291 30.1761C24.6169 30.1761 23.8248 30.036 23.1525 29.7557C22.4843 29.4754 21.9622 29.0663 21.5842 28.5284C21.2093 27.9905 21.0077 27.3352 20.9765 26.5625H23.0668C23.0971 26.9678 23.2231 27.3049 23.4448 27.5739C23.6665 27.8428 23.9548 28.0436 24.3095 28.1761C24.6683 28.3087 25.0695 28.375 25.5119 28.375C25.9745 28.375 26.3787 28.3068 26.7264 28.1705C27.0772 28.0303 27.3523 27.8371 27.5509 27.5909C27.7494 27.3409 27.8502 27.0492 27.8542 26.7159C27.8502 26.4129 27.7605 26.1629 27.5851 25.9659C27.4098 25.7652 27.1638 25.5985 26.8464 25.4659C26.5339 25.3295 26.167 25.2083 25.7468 25.1023L24.4123 24.7614C23.4468 24.5152 22.6828 24.142 22.1225 23.642C21.5651 23.1383 21.2859 22.4697 21.2859 21.6364C21.2859 20.9508 21.4734 20.3504 21.8473 19.8352C22.2253 19.3201 22.7383 18.9205 23.3873 18.6364C24.0364 18.3485 24.7711 18.2045 25.5926 18.2045C26.4251 18.2045 27.1538 18.3485 27.7796 18.6364C28.4096 18.9205 28.9044 19.3163 29.2632 19.8239C29.622 20.3277 29.8075 20.9072 29.8186 21.5625H27.7746ZM31.5189 20.1307V18.3636H40.876V20.1307H37.2506V30H35.1442V20.1307H31.5189ZM50.4155 30.1705C49.6142 30.1705 48.9248 30.0265 48.3483 29.7386C47.7718 29.4508 47.3274 29.0625 47.0139 28.5739C46.7045 28.0814 46.5503 27.5265 46.5503 26.9091C46.5503 26.4432 46.645 26.0303 46.8365 25.6705C47.0311 25.3106 47.2981 24.9773 47.6378 24.6705C47.9815 24.3636 48.3786 24.0587 48.8291 23.7557L50.9083 22.3523C51.2137 22.1553 51.4445 21.947 51.6008 21.7273C51.761 21.5076 51.8416 21.25 51.8416 20.9545C51.8416 20.7045 51.7348 20.4678 51.5211 20.2443C51.3105 20.0208 51.0202 19.9091 50.6503 19.9091C50.4024 19.9091 50.1827 19.9678 49.9922 20.0852C49.8047 20.1989 49.6576 20.3485 49.5507 20.5341C49.4479 20.7197 49.3965 20.9167 49.3965 21.125C49.3965 21.3788 49.4671 21.6364 49.6082 21.8977C49.7533 22.1591 49.9398 22.4299 50.1696 22.7102C50.4024 22.9905 50.6503 23.2879 50.9134 23.6023L56.4174 30H54.1718L49.6021 24.8068C49.2625 24.4129 48.9339 24.0246 48.6174 23.642C48.304 23.2595 48.047 22.8617 47.8444 22.4489C47.6459 22.0322 47.5461 21.5814 47.5461 21.0966C47.5461 20.5473 47.6741 20.0568 47.9301 19.625C48.1861 19.1894 48.5429 18.8466 49.0014 18.5966C49.463 18.3466 50.0033 18.2216 50.6221 18.2216C51.2399 18.2216 51.7711 18.3428 52.2135 18.5852C52.656 18.8277 52.9977 19.1496 53.2386 19.5511C53.4794 19.9527 53.5994 20.3902 53.5994 20.8636C53.5994 21.4129 53.4623 21.9053 53.1871 22.3409C52.912 22.7727 52.53 23.1648 52.0422 23.517L49.6707 25.2386C49.2816 25.5189 49.0025 25.803 48.8351 26.0909C48.6668 26.375 48.5832 26.6174 48.5832 26.8182C48.5832 27.125 48.6608 27.4034 48.818 27.6534C48.9742 27.9034 49.194 28.1042 49.4762 28.2557C49.7624 28.4034 50.097 28.4773 50.478 28.4773C50.8983 28.4773 51.3125 28.3845 51.7207 28.1989C52.1299 28.0095 52.5018 27.7405 52.8374 27.392C53.174 27.0436 53.4411 26.6269 53.6397 26.142C53.8382 25.6534 53.937 25.1117 53.937 24.517H55.7179C55.7179 25.2519 55.6363 25.892 55.472 26.4375C55.3077 26.9792 55.0961 27.4375 54.836 27.8125C54.577 28.1837 54.3019 28.4811 54.0116 28.7045C53.9199 28.7689 53.8322 28.8333 53.7485 28.8977C53.6639 28.9621 53.5762 29.0265 53.4845 29.0909C53.0722 29.4621 52.5895 29.7348 52.0362 29.9091C51.4859 30.0833 50.9456 30.1705 50.4155 30.1705ZM69.8745 22.0795C69.7788 21.7727 69.6477 21.4981 69.4794 21.2557C69.3152 21.0095 69.1166 20.7992 68.8838 20.625C68.655 20.4508 68.3919 20.3201 68.0936 20.233C67.7963 20.142 67.4717 20.0966 67.12 20.0966C66.4901 20.0966 65.9287 20.2538 65.4368 20.5682C64.944 20.8826 64.557 21.3447 64.2738 21.9545C63.9956 22.5606 63.8565 23.2992 63.8565 24.1705C63.8565 25.0492 63.9956 25.7936 64.2738 26.4034C64.5529 27.0133 64.94 27.4773 65.4368 27.7955C65.9327 28.1098 66.5092 28.267 67.1664 28.267C67.762 28.267 68.277 28.1534 68.7124 27.9261C69.1509 27.6989 69.4895 27.3769 69.7253 26.9602C69.9622 26.5398 70.0811 26.0473 70.0811 25.483L70.5619 25.5568H67.378V23.9091H72.1362V25.3068C72.1362 26.303 71.9225 27.1648 71.4952 27.892C71.0678 28.6193 70.4803 29.1799 69.7314 29.5739C68.9836 29.964 68.1238 30.1591 67.1543 30.1591C66.0738 30.1591 65.1254 29.9186 64.308 29.4375C63.4957 28.9527 62.8597 28.2652 62.4011 27.375C61.9476 26.4811 61.7198 25.4205 61.7198 24.1932C61.7198 23.2538 61.8538 22.4148 62.1209 21.6761C62.3921 20.9375 62.77 20.3106 63.2548 19.7955C63.7396 19.2765 64.308 18.8826 64.9611 18.6136C65.6142 18.3409 66.3238 18.2045 67.0918 18.2045C67.7408 18.2045 68.3456 18.2992 68.907 18.4886C69.4683 18.6742 69.9662 18.9394 70.4016 19.2841C70.8411 19.6288 71.2009 20.0379 71.4841 20.5114C71.7663 20.9848 71.9517 21.5076 72.0394 22.0795H69.8745ZM74.2608 30V21.2727H76.2705V22.7273H76.3622C76.5225 22.2235 76.7976 21.8352 77.1866 21.5625C77.5807 21.286 78.0292 21.1477 78.5332 21.1477C78.6471 21.1477 78.775 21.1534 78.9161 21.1648C79.0613 21.1723 79.1822 21.1856 79.277 21.2045V23.0966C79.1893 23.0663 79.0502 23.0398 78.8587 23.017C78.6723 22.9905 78.4908 22.9773 78.3155 22.9773C77.9375 22.9773 77.5978 23.0587 77.2955 23.2216C76.9982 23.3807 76.7633 23.6023 76.591 23.8864C76.4197 24.1705 76.334 24.4981 76.334 24.8693V30H74.2608ZM83.1895 30.1761C82.6322 30.1761 82.1303 30.0777 81.6828 29.8807C81.2403 29.6799 80.8896 29.3845 80.6295 28.9943C80.3735 28.6042 80.2455 28.1231 80.2455 27.5511C80.2455 27.0587 80.3373 26.6515 80.5207 26.3295C80.7041 26.0076 80.9541 25.75 81.2705 25.5568C81.588 25.3636 81.9448 25.2178 82.3419 25.1193C82.743 25.017 83.1573 24.9432 83.5846 24.8977C84.0996 24.8447 84.5179 24.7973 84.8384 24.7557C85.1589 24.7102 85.3917 24.642 85.5369 24.5511C85.686 24.4564 85.7606 24.3106 85.7606 24.1136V24.0795C85.7606 23.6515 85.6326 23.3201 85.3766 23.0852C85.1206 22.8504 84.7528 22.733 84.272 22.733C83.764 22.733 83.3609 22.8428 83.0636 23.0625C82.7693 23.2822 82.5707 23.5417 82.4679 23.8409L80.5318 23.5682C80.685 23.0379 80.9369 22.5947 81.2877 22.2386C81.6394 21.8788 82.0688 21.6098 82.5768 21.4318C83.0847 21.25 83.6451 21.1591 84.2599 21.1591C84.6842 21.1591 85.1055 21.2083 85.5258 21.3068C85.9461 21.4053 86.3291 21.5682 86.6768 21.7955C87.0245 22.0189 87.3027 22.3239 87.5133 22.7102C87.727 23.0966 87.8338 23.5795 87.8338 24.1591V30H85.8403V28.8011H85.7717C85.6457 29.0436 85.4683 29.2708 85.2396 29.483C85.0138 29.6913 84.7296 29.8598 84.3859 29.9886C84.0462 30.1136 83.6471 30.1761 83.1895 30.1761ZM83.7277 28.6648C84.144 28.6648 84.5048 28.5833 84.8102 28.4205C85.1156 28.2538 85.3504 28.0341 85.5147 27.7614C85.682 27.4886 85.7667 27.1913 85.7667 26.8693V25.8409C85.7012 25.8939 85.5903 25.9432 85.4341 25.9886C85.2819 26.0341 85.1095 26.0739 84.9191 26.108C84.7276 26.142 84.5391 26.1723 84.3516 26.1989C84.1652 26.2254 84.0029 26.2481 83.8648 26.267C83.5554 26.3087 83.2792 26.3769 83.0343 26.4716C82.7904 26.5663 82.5979 26.6989 82.4568 26.8693C82.3147 27.036 82.2442 27.2519 82.2442 27.517C82.2442 27.8958 82.3843 28.1818 82.6624 28.375C82.9416 28.5682 83.2964 28.6648 83.7277 28.6648ZM90.0794 33.2727V21.2727H92.1183V22.7159H92.2382C92.3451 22.5038 92.4963 22.2784 92.6908 22.0398C92.8853 21.7973 93.1483 21.5909 93.4809 21.4205C93.8125 21.2462 94.2368 21.1591 94.7519 21.1591C95.4322 21.1591 96.045 21.3314 96.5902 21.6761C97.1405 22.017 97.5749 22.5227 97.8964 23.1932C98.221 23.8598 98.3832 24.678 98.3832 25.6477C98.3832 26.6061 98.224 27.4205 97.9075 28.0909C97.591 28.7614 97.1597 29.2727 96.6134 29.625C96.0671 29.9773 95.4493 30.1534 94.7579 30.1534C94.254 30.1534 93.8357 30.0701 93.5041 29.9034C93.1715 29.7367 92.9044 29.536 92.7019 29.3011C92.5033 29.0625 92.3491 28.8371 92.2382 28.625H92.1526V33.2727H90.0794ZM92.1122 25.6364C92.1122 26.2008 92.1929 26.6951 92.3531 27.1193C92.5174 27.5436 92.7512 27.875 93.0566 28.1136C93.366 28.3485 93.741 28.4659 94.1794 28.4659C94.638 28.4659 95.021 28.3447 95.3304 28.1023C95.6398 27.8561 95.8726 27.5208 96.0288 27.0966C96.1891 26.6686 96.2697 26.1818 96.2697 25.6364C96.2697 25.0947 96.1911 24.6136 96.0349 24.1932C95.8787 23.7727 95.6459 23.4432 95.3364 23.2045C95.027 22.9659 94.641 22.8466 94.1794 22.8466C93.7369 22.8466 93.361 22.9621 93.0516 23.1932C92.7422 23.4242 92.5073 23.7481 92.3471 24.1648C92.1909 24.5814 92.1122 25.072 92.1122 25.6364ZM102.393 24.8864V30H100.319V18.3636H102.346V22.7557H102.45C102.656 22.2633 102.974 21.875 103.405 21.5909C103.841 21.303 104.395 21.1591 105.066 21.1591C105.677 21.1591 106.21 21.286 106.664 21.5398C107.118 21.7936 107.47 22.1648 107.718 22.6534C107.97 23.142 108.096 23.7386 108.096 24.4432V30H106.023V24.7614C106.023 24.1742 105.871 23.7178 105.564 23.392C105.263 23.0625 104.84 22.8977 104.293 22.8977C103.927 22.8977 103.599 22.9773 103.309 23.1364C103.022 23.2917 102.797 23.517 102.632 23.8125C102.472 24.108 102.393 24.4659 102.393 24.8864ZM114.832 26.0909H116.756L117.895 27.5568L118.708 28.5114L120.661 31H118.599L117.271 29.3295L116.704 28.5341L114.832 26.0909ZM120.941 24.1818C120.941 25.4356 120.705 26.5095 120.232 27.4034C119.762 28.2936 119.12 28.9754 118.307 29.4489C117.498 29.9223 116.579 30.1591 115.552 30.1591C114.526 30.1591 113.606 29.9223 112.793 29.4489C111.983 28.9716 111.341 28.2879 110.869 27.3977C110.399 26.5038 110.164 25.4318 110.164 24.1818C110.164 22.928 110.399 21.8561 110.869 20.9659C111.341 20.072 111.983 19.3883 112.793 18.9148C113.606 18.4413 114.526 18.2045 115.552 18.2045C116.579 18.2045 117.498 18.4413 118.307 18.9148C119.12 19.3883 119.762 20.072 120.232 20.9659C120.705 21.8561 120.941 22.928 120.941 24.1818ZM118.806 24.1818C118.806 23.2992 118.667 22.5549 118.388 21.9489C118.112 21.339 117.73 20.8788 117.243 20.5682C116.754 20.2538 116.19 20.0966 115.552 20.0966C114.915 20.0966 114.352 20.2538 113.863 20.5682C113.375 20.8788 112.991 21.339 112.712 21.9489C112.438 22.5549 112.3 23.2992 112.3 24.1818C112.3 25.0644 112.438 25.8106 112.712 26.4205C112.991 27.0265 113.375 27.4867 113.863 27.8011C114.352 28.1117 114.915 28.267 115.552 28.267C116.19 28.267 116.754 28.1117 117.243 27.8011C117.73 27.4867 118.112 27.0265 118.388 26.4205C118.667 25.8106 118.806 25.0644 118.806 24.1818ZM123.128 30V18.3636H125.252V28.233H130.417V30H123.128Z" fill="#356CAD"/>
</svg>
